<svg width="782" height="128" xmlns="http://www.w3.org/2000/svg"><path fill="#fff" d="M0 0h782v128H0z"/><path class="cg-day" fill="#eee" data-count="0" data-date="2022-06-15" onmouseover="undefined" d="M21 63h12v12H21z"/><path class="cg-day" fill="#eee" data-count="0" data-date="2022-06-16" onmouseover="undefined" d="M21 77h12v12H21z"/><path class="cg-day" fill="#eee" data-count="0" data-date="2022-06-17" onmouseover="undefined" d="M21 91h12v12H21z"/><path class="cg-day" fill="#eee" data-count="0" data-date="2022-06-18" onmouseover="undefined" d="M21 105h12v12H21z"/><path class="cg-day" fill="#eee" data-count="0" data-date="2022-06-19" onmouseover="undefined" d="M35 21h12v12H35z"/><path class="cg-day" fill="#eee" data-count="0" data-date="2022-06-20" onmouseover="undefined" d="M35 35h12v12H35z"/><path class="cg-day" fill="#eee" data-count="0" data-date="2022-06-21" onmouseover="undefined" d="M35 49h12v12H35z"/><path class="cg-day" fill="#eee" data-count="0" data-date="2022-06-22" onmouseover="undefined" d="M35 63h12v12H35z"/><path class="cg-day" fill="#eee" data-count="0" data-date="2022-06-23" onmouseover="undefined" d="M35 77h12v12H35z"/><path class="cg-day" fill="#eee" data-count="0" data-date="2022-06-24" onmouseover="undefined" d="M35 91h12v12H35z"/><path class="cg-day" fill="#eee" data-count="0" data-date="2022-06-25" onmouseover="undefined" d="M35 105h12v12H35z"/><path class="cg-day" fill="#eee" data-count="0" data-date="2022-06-26" onmouseover="undefined" d="M49 21h12v12H49z"/><path class="cg-day" fill="#eee" data-count="0" data-date="2022-06-27" onmouseover="undefined" d="M49 35h12v12H49z"/><path class="cg-day" fill="#eee" data-count="0" data-date="2022-06-28" onmouseover="undefined" d="M49 49h12v12H49z"/><path class="cg-day" fill="#eee" data-count="0" data-date="2022-06-29" onmouseover="undefined" d="M49 63h12v12H49z"/><path class="cg-day" fill="#eee" data-count="0" data-date="2022-06-30" onmouseover="undefined" d="M49 77h12v12H49z"/><path class="cg-day" fill="#eee" data-count="0" data-date="2022-07-01" onmouseover="undefined" d="M49 91h12v12H49z"/><path class="cg-day" fill="#c6e48b" data-count="1" data-date="2022-07-02" onclick="document.getElementById('day-2-2022-07-02')?.scrollIntoView();" onmouseover="undefined" d="M49 105h12v12H49z"/><path class="cg-day" fill="#eee" data-count="0" data-date="2022-07-03" onmouseover="undefined" d="M63 21h12v12H63z"/><path class="cg-day" fill="#eee" data-count="0" data-date="2022-07-04" onmouseover="undefined" d="M63 35h12v12H63z"/><path class="cg-day" fill="#7bc96f" data-count="18" data-date="2022-07-05" onclick="document.getElementById('day-3-2022-07-05')?.scrollIntoView();" onmouseover="undefined" d="M63 49h12v12H63z"/><path class="cg-day" fill="#239a3b" data-count="35" data-date="2022-07-06" onclick="document.getElementById('day-4-2022-07-06')?.scrollIntoView();" onmouseover="undefined" d="M63 63h12v12H63z"/><path class="cg-day" fill="#239a3b" data-count="31" data-date="2022-07-07" onclick="document.getElementById('day-5-2022-07-07')?.scrollIntoView();" onmouseover="undefined" d="M63 77h12v12H63z"/><path class="cg-day" fill="#7bc96f" data-count="28" data-date="2022-07-08" onclick="document.getElementById('day-6-2022-07-08')?.scrollIntoView();" onmouseover="undefined" d="M63 91h12v12H63z"/><path class="cg-day" fill="#eee" data-count="0" data-date="2022-07-09" onmouseover="undefined" d="M63 105h12v12H63z"/><path class="cg-day" fill="#eee" data-count="0" data-date="2022-07-10" onmouseover="undefined" d="M77 21h12v12H77z"/><path class="cg-day" fill="#eee" data-count="0" data-date="2022-07-11" onmouseover="undefined" d="M77 35h12v12H77z"/><path class="cg-day" fill="#eee" data-count="0" data-date="2022-07-12" onmouseover="undefined" d="M77 49h12v12H77z"/><path class="cg-day" fill="#eee" data-count="0" data-date="2022-07-13" onmouseover="undefined" d="M77 63h12v12H77z"/><path class="cg-day" fill="#c6e48b" data-count="15" data-date="2022-07-14" onclick="document.getElementById('day-7-2022-07-14')?.scrollIntoView();" onmouseover="undefined" d="M77 77h12v12H77z"/><path class="cg-day" fill="#239a3b" data-count="42" data-date="2022-07-15" onclick="document.getElementById('day-8-2022-07-15')?.scrollIntoView();" onmouseover="undefined" d="M77 91h12v12H77z"/><path class="cg-day" fill="#239a3b" data-count="32" data-date="2022-07-16" onclick="document.getElementById('day-9-2022-07-16')?.scrollIntoView();" onmouseover="undefined" d="M77 105h12v12H77z"/><path class="cg-day" fill="#7bc96f" data-count="23" data-date="2022-07-17" onclick="document.getElementById('day-10-2022-07-17')?.scrollIntoView();" onmouseover="undefined" d="M91 21h12v12H91z"/><path class="cg-day" fill="#196127" data-count="58" data-date="2022-07-18" onclick="document.getElementById('day-11-2022-07-18')?.scrollIntoView();" onmouseover="undefined" d="M91 35h12v12H91z"/><path class="cg-day" fill="#eee" data-count="0" data-date="2022-07-19" onmouseover="undefined" d="M91 49h12v12H91z"/><path class="cg-day" fill="#eee" data-count="0" data-date="2022-07-20" onmouseover="undefined" d="M91 63h12v12H91z"/><path class="cg-day" fill="#eee" data-count="0" data-date="2022-07-21" onmouseover="undefined" d="M91 77h12v12H91z"/><path class="cg-day" fill="#eee" data-count="0" data-date="2022-07-22" onmouseover="undefined" d="M91 91h12v12H91z"/><path class="cg-day" fill="#eee" data-count="0" data-date="2022-07-23" onmouseover="undefined" d="M91 105h12v12H91z"/><path class="cg-day" fill="#eee" data-count="0" data-date="2022-07-24" onmouseover="undefined" d="M105 21h12v12h-12z"/><path class="cg-day" fill="#eee" data-count="0" data-date="2022-07-25" onmouseover="undefined" d="M105 35h12v12h-12z"/><path class="cg-day" fill="#eee" data-count="0" data-date="2022-07-26" onmouseover="undefined" d="M105 49h12v12h-12z"/><path class="cg-day" fill="#eee" data-count="0" data-date="2022-07-27" onmouseover="undefined" d="M105 63h12v12h-12z"/><path class="cg-day" fill="#eee" data-count="0" data-date="2022-07-28" onmouseover="undefined" d="M105 77h12v12h-12z"/><path class="cg-day" fill="#eee" data-count="0" data-date="2022-07-29" onmouseover="undefined" d="M105 91h12v12h-12z"/><path class="cg-day" fill="#eee" data-count="0" data-date="2022-07-30" onmouseover="undefined" d="M105 105h12v12h-12z"/><path class="cg-day" fill="#eee" data-count="0" data-date="2022-07-31" onmouseover="undefined" d="M119 21h12v12h-12z"/><path class="cg-day" fill="#239a3b" data-count="32" data-date="2022-08-01" onclick="document.getElementById('day-12-2022-08-01')?.scrollIntoView();" onmouseover="undefined" d="M119 35h12v12h-12z"/><path class="cg-day" fill="#eee" data-count="0" data-date="2022-08-02" onmouseover="undefined" d="M119 49h12v12h-12z"/><path class="cg-day" fill="#eee" data-count="0" data-date="2022-08-03" onmouseover="undefined" d="M119 63h12v12h-12z"/><path class="cg-day" fill="#eee" data-count="0" data-date="2022-08-04" onmouseover="undefined" d="M119 77h12v12h-12z"/><path class="cg-day" fill="#eee" data-count="0" data-date="2022-08-05" onmouseover="undefined" d="M119 91h12v12h-12z"/><path class="cg-day" fill="#eee" data-count="0" data-date="2022-08-06" onmouseover="undefined" d="M119 105h12v12h-12z"/><g><path class="cg-day" fill="#eee" data-count="0" data-date="2022-08-07" onmouseover="undefined" d="M133 21h12v12h-12z"/><path class="cg-day" fill="#eee" data-count="0" data-date="2022-08-08" onmouseover="undefined" d="M133 35h12v12h-12z"/><path class="cg-day" fill="#eee" data-count="0" data-date="2022-08-09" onmouseover="undefined" d="M133 49h12v12h-12z"/><path class="cg-day" fill="#eee" data-count="0" data-date="2022-08-10" onmouseover="undefined" d="M133 63h12v12h-12z"/><path class="cg-day" fill="#eee" data-count="0" data-date="2022-08-11" onmouseover="undefined" d="M133 77h12v12h-12z"/><path class="cg-day" fill="#196127" data-count="49" data-date="2022-08-12" onclick="document.getElementById('day-13-2022-08-12')?.scrollIntoView();" onmouseover="undefined" d="M133 91h12v12h-12z"/><path class="cg-day" fill="#eee" data-count="0" data-date="2022-08-13" onmouseover="undefined" d="M133 105h12v12h-12z"/></g><g><path class="cg-day" fill="#196127" data-count="121" data-date="2022-08-14" onclick="document.getElementById('day-14-2022-08-14')?.scrollIntoView();" onmouseover="undefined" d="M147 21h12v12h-12z"/><path class="cg-day" fill="#eee" data-count="0" data-date="2022-08-15" onmouseover="undefined" d="M147 35h12v12h-12z"/><path class="cg-day" fill="#eee" data-count="0" data-date="2022-08-16" onmouseover="undefined" d="M147 49h12v12h-12z"/><path class="cg-day" fill="#eee" data-count="0" data-date="2022-08-17" onmouseover="undefined" d="M147 63h12v12h-12z"/><path class="cg-day" fill="#eee" data-count="0" data-date="2022-08-18" onmouseover="undefined" d="M147 77h12v12h-12z"/><path class="cg-day" fill="#eee" data-count="0" data-date="2022-08-19" onmouseover="undefined" d="M147 91h12v12h-12z"/><path class="cg-day" fill="#eee" data-count="0" data-date="2022-08-20" onmouseover="undefined" d="M147 105h12v12h-12z"/></g><g><path class="cg-day" fill="#239a3b" data-count="43" data-date="2022-08-21" onclick="document.getElementById('day-15-2022-08-21')?.scrollIntoView();" onmouseover="undefined" d="M161 21h12v12h-12z"/><path class="cg-day" fill="#196127" data-count="53" data-date="2022-08-22" onclick="document.getElementById('day-16-2022-08-22')?.scrollIntoView();" onmouseover="undefined" d="M161 35h12v12h-12z"/><path class="cg-day" fill="#196127" data-count="94" data-date="2022-08-23" onclick="document.getElementById('day-17-2022-08-23')?.scrollIntoView();" onmouseover="undefined" d="M161 49h12v12h-12z"/><path class="cg-day" fill="#196127" data-count="55" data-date="2022-08-24" onclick="document.getElementById('day-18-2022-08-24')?.scrollIntoView();" onmouseover="undefined" d="M161 63h12v12h-12z"/><path class="cg-day" fill="#eee" data-count="0" data-date="2022-08-25" onmouseover="undefined" d="M161 77h12v12h-12z"/><path class="cg-day" fill="#eee" data-count="0" data-date="2022-08-26" onmouseover="undefined" d="M161 91h12v12h-12z"/><path class="cg-day" fill="#eee" data-count="0" data-date="2022-08-27" onmouseover="undefined" d="M161 105h12v12h-12z"/></g><g><path class="cg-day" fill="#eee" data-count="0" data-date="2022-08-28" onmouseover="undefined" d="M175 21h12v12h-12z"/><path class="cg-day" fill="#eee" data-count="0" data-date="2022-08-29" onmouseover="undefined" d="M175 35h12v12h-12z"/><path class="cg-day" fill="#eee" data-count="0" data-date="2022-08-30" onmouseover="undefined" d="M175 49h12v12h-12z"/><path class="cg-day" fill="#eee" data-count="0" data-date="2022-08-31" onmouseover="undefined" d="M175 63h12v12h-12z"/><path class="cg-day" fill="#eee" data-count="0" data-date="2022-09-01" onmouseover="undefined" d="M175 77h12v12h-12z"/><path class="cg-day" fill="#eee" data-count="0" data-date="2022-09-02" onmouseover="undefined" d="M175 91h12v12h-12z"/><path class="cg-day" fill="#eee" data-count="0" data-date="2022-09-03" onmouseover="undefined" d="M175 105h12v12h-12z"/></g><g><path class="cg-day" fill="#eee" data-count="0" data-date="2022-09-04" onmouseover="undefined" d="M189 21h12v12h-12z"/><path class="cg-day" fill="#eee" data-count="0" data-date="2022-09-05" onmouseover="undefined" d="M189 35h12v12h-12z"/><path class="cg-day" fill="#eee" data-count="0" data-date="2022-09-06" onmouseover="undefined" d="M189 49h12v12h-12z"/><path class="cg-day" fill="#eee" data-count="0" data-date="2022-09-07" onmouseover="undefined" d="M189 63h12v12h-12z"/><path class="cg-day" fill="#eee" data-count="0" data-date="2022-09-08" onmouseover="undefined" d="M189 77h12v12h-12z"/><path class="cg-day" fill="#eee" data-count="0" data-date="2022-09-09" onmouseover="undefined" d="M189 91h12v12h-12z"/><path class="cg-day" fill="#eee" data-count="0" data-date="2022-09-10" onmouseover="undefined" d="M189 105h12v12h-12z"/></g><g><path class="cg-day" fill="#eee" data-count="0" data-date="2022-09-11" onmouseover="undefined" d="M203 21h12v12h-12z"/><path class="cg-day" fill="#eee" data-count="0" data-date="2022-09-12" onmouseover="undefined" d="M203 35h12v12h-12z"/><path class="cg-day" fill="#eee" data-count="0" data-date="2022-09-13" onmouseover="undefined" d="M203 49h12v12h-12z"/><path class="cg-day" fill="#eee" data-count="0" data-date="2022-09-14" onmouseover="undefined" d="M203 63h12v12h-12z"/><path class="cg-day" fill="#eee" data-count="0" data-date="2022-09-15" onmouseover="undefined" d="M203 77h12v12h-12z"/><path class="cg-day" fill="#eee" data-count="0" data-date="2022-09-16" onmouseover="undefined" d="M203 91h12v12h-12z"/><path class="cg-day" fill="#eee" data-count="0" data-date="2022-09-17" onmouseover="undefined" d="M203 105h12v12h-12z"/></g><g><path class="cg-day" fill="#eee" data-count="0" data-date="2022-09-18" onmouseover="undefined" d="M217 21h12v12h-12z"/><path class="cg-day" fill="#eee" data-count="0" data-date="2022-09-19" onmouseover="undefined" d="M217 35h12v12h-12z"/><path class="cg-day" fill="#eee" data-count="0" data-date="2022-09-20" onmouseover="undefined" d="M217 49h12v12h-12z"/><path class="cg-day" fill="#eee" data-count="0" data-date="2022-09-21" onmouseover="undefined" d="M217 63h12v12h-12z"/><path class="cg-day" fill="#eee" data-count="0" data-date="2022-09-22" onmouseover="undefined" d="M217 77h12v12h-12z"/><path class="cg-day" fill="#eee" data-count="0" data-date="2022-09-23" onmouseover="undefined" d="M217 91h12v12h-12z"/><path class="cg-day" fill="#eee" data-count="0" data-date="2022-09-24" onmouseover="undefined" d="M217 105h12v12h-12z"/></g><g><path class="cg-day" fill="#eee" data-count="0" data-date="2022-09-25" onmouseover="undefined" d="M231 21h12v12h-12z"/><path class="cg-day" fill="#eee" data-count="0" data-date="2022-09-26" onmouseover="undefined" d="M231 35h12v12h-12z"/><path class="cg-day" fill="#eee" data-count="0" data-date="2022-09-27" onmouseover="undefined" d="M231 49h12v12h-12z"/><path class="cg-day" fill="#eee" data-count="0" data-date="2022-09-28" onmouseover="undefined" d="M231 63h12v12h-12z"/><path class="cg-day" fill="#eee" data-count="0" data-date="2022-09-29" onmouseover="undefined" d="M231 77h12v12h-12z"/><path class="cg-day" fill="#eee" data-count="0" data-date="2022-09-30" onmouseover="undefined" d="M231 91h12v12h-12z"/><path class="cg-day" fill="#eee" data-count="0" data-date="2022-10-01" onmouseover="undefined" d="M231 105h12v12h-12z"/></g><g><path class="cg-day" fill="#eee" data-count="0" data-date="2022-10-02" onmouseover="undefined" d="M245 21h12v12h-12z"/><path class="cg-day" fill="#eee" data-count="0" data-date="2022-10-03" onmouseover="undefined" d="M245 35h12v12h-12z"/><path class="cg-day" fill="#eee" data-count="0" data-date="2022-10-04" onmouseover="undefined" d="M245 49h12v12h-12z"/><path class="cg-day" fill="#eee" data-count="0" data-date="2022-10-05" onmouseover="undefined" d="M245 63h12v12h-12z"/><path class="cg-day" fill="#eee" data-count="0" data-date="2022-10-06" onmouseover="undefined" d="M245 77h12v12h-12z"/><path class="cg-day" fill="#eee" data-count="0" data-date="2022-10-07" onmouseover="undefined" d="M245 91h12v12h-12z"/><path class="cg-day" fill="#eee" data-count="0" data-date="2022-10-08" onmouseover="undefined" d="M245 105h12v12h-12z"/></g><g><path class="cg-day" fill="#eee" data-count="0" data-date="2022-10-09" onmouseover="undefined" d="M259 21h12v12h-12z"/><path class="cg-day" fill="#eee" data-count="0" data-date="2022-10-10" onmouseover="undefined" d="M259 35h12v12h-12z"/><path class="cg-day" fill="#eee" data-count="0" data-date="2022-10-11" onmouseover="undefined" d="M259 49h12v12h-12z"/><path class="cg-day" fill="#eee" data-count="0" data-date="2022-10-12" onmouseover="undefined" d="M259 63h12v12h-12z"/><path class="cg-day" fill="#eee" data-count="0" data-date="2022-10-13" onmouseover="undefined" d="M259 77h12v12h-12z"/><path class="cg-day" fill="#eee" data-count="0" data-date="2022-10-14" onmouseover="undefined" d="M259 91h12v12h-12z"/><path class="cg-day" fill="#eee" data-count="0" data-date="2022-10-15" onmouseover="undefined" d="M259 105h12v12h-12z"/></g><g><path class="cg-day" fill="#eee" data-count="0" data-date="2022-10-16" onmouseover="undefined" d="M273 21h12v12h-12z"/><path class="cg-day" fill="#eee" data-count="0" data-date="2022-10-17" onmouseover="undefined" d="M273 35h12v12h-12z"/><path class="cg-day" fill="#eee" data-count="0" data-date="2022-10-18" onmouseover="undefined" d="M273 49h12v12h-12z"/><path class="cg-day" fill="#eee" data-count="0" data-date="2022-10-19" onmouseover="undefined" d="M273 63h12v12h-12z"/><path class="cg-day" fill="#eee" data-count="0" data-date="2022-10-20" onmouseover="undefined" d="M273 77h12v12h-12z"/><path class="cg-day" fill="#eee" data-count="0" data-date="2022-10-21" onmouseover="undefined" d="M273 91h12v12h-12z"/><path class="cg-day" fill="#eee" data-count="0" data-date="2022-10-22" onmouseover="undefined" d="M273 105h12v12h-12z"/></g><g><path class="cg-day" fill="#eee" data-count="0" data-date="2022-10-23" onmouseover="undefined" d="M287 21h12v12h-12z"/><path class="cg-day" fill="#eee" data-count="0" data-date="2022-10-24" onmouseover="undefined" d="M287 35h12v12h-12z"/><path class="cg-day" fill="#eee" data-count="0" data-date="2022-10-25" onmouseover="undefined" d="M287 49h12v12h-12z"/><path class="cg-day" fill="#eee" data-count="0" data-date="2022-10-26" onmouseover="undefined" d="M287 63h12v12h-12z"/><path class="cg-day" fill="#eee" data-count="0" data-date="2022-10-27" onmouseover="undefined" d="M287 77h12v12h-12z"/><path class="cg-day" fill="#eee" data-count="0" data-date="2022-10-28" onmouseover="undefined" d="M287 91h12v12h-12z"/><path class="cg-day" fill="#eee" data-count="0" data-date="2022-10-29" onmouseover="undefined" d="M287 105h12v12h-12z"/></g><g><path class="cg-day" fill="#eee" data-count="0" data-date="2022-10-30" onmouseover="undefined" d="M301 21h12v12h-12z"/><path class="cg-day" fill="#eee" data-count="0" data-date="2022-10-31" onmouseover="undefined" d="M301 35h12v12h-12z"/><path class="cg-day" fill="#eee" data-count="0" data-date="2022-11-01" onmouseover="undefined" d="M301 49h12v12h-12z"/><path class="cg-day" fill="#eee" data-count="0" data-date="2022-11-02" onmouseover="undefined" d="M301 63h12v12h-12z"/><path class="cg-day" fill="#eee" data-count="0" data-date="2022-11-03" onmouseover="undefined" d="M301 77h12v12h-12z"/><path class="cg-day" fill="#eee" data-count="0" data-date="2022-11-04" onmouseover="undefined" d="M301 91h12v12h-12z"/><path class="cg-day" fill="#eee" data-count="0" data-date="2022-11-05" onmouseover="undefined" d="M301 105h12v12h-12z"/></g><g><path class="cg-day" fill="#eee" data-count="0" data-date="2022-11-06" onmouseover="undefined" d="M315 21h12v12h-12z"/><path class="cg-day" fill="#eee" data-count="0" data-date="2022-11-07" onmouseover="undefined" d="M315 35h12v12h-12z"/><path class="cg-day" fill="#eee" data-count="0" data-date="2022-11-08" onmouseover="undefined" d="M315 49h12v12h-12z"/><path class="cg-day" fill="#eee" data-count="0" data-date="2022-11-09" onmouseover="undefined" d="M315 63h12v12h-12z"/><path class="cg-day" fill="#eee" data-count="0" data-date="2022-11-10" onmouseover="undefined" d="M315 77h12v12h-12z"/><path class="cg-day" fill="#eee" data-count="0" data-date="2022-11-11" onmouseover="undefined" d="M315 91h12v12h-12z"/><path class="cg-day" fill="#eee" data-count="0" data-date="2022-11-12" onmouseover="undefined" d="M315 105h12v12h-12z"/></g><g><path class="cg-day" fill="#eee" data-count="0" data-date="2022-11-13" onmouseover="undefined" d="M329 21h12v12h-12z"/><path class="cg-day" fill="#eee" data-count="0" data-date="2022-11-14" onmouseover="undefined" d="M329 35h12v12h-12z"/><path class="cg-day" fill="#eee" data-count="0" data-date="2022-11-15" onmouseover="undefined" d="M329 49h12v12h-12z"/><path class="cg-day" fill="#eee" data-count="0" data-date="2022-11-16" onmouseover="undefined" d="M329 63h12v12h-12z"/><path class="cg-day" fill="#eee" data-count="0" data-date="2022-11-17" onmouseover="undefined" d="M329 77h12v12h-12z"/><path class="cg-day" fill="#eee" data-count="0" data-date="2022-11-18" onmouseover="undefined" d="M329 91h12v12h-12z"/><path class="cg-day" fill="#eee" data-count="0" data-date="2022-11-19" onmouseover="undefined" d="M329 105h12v12h-12z"/></g><g><path class="cg-day" fill="#eee" data-count="0" data-date="2022-11-20" onmouseover="undefined" d="M343 21h12v12h-12z"/><path class="cg-day" fill="#eee" data-count="0" data-date="2022-11-21" onmouseover="undefined" d="M343 35h12v12h-12z"/><path class="cg-day" fill="#eee" data-count="0" data-date="2022-11-22" onmouseover="undefined" d="M343 49h12v12h-12z"/><path class="cg-day" fill="#eee" data-count="0" data-date="2022-11-23" onmouseover="undefined" d="M343 63h12v12h-12z"/><path class="cg-day" fill="#eee" data-count="0" data-date="2022-11-24" onmouseover="undefined" d="M343 77h12v12h-12z"/><path class="cg-day" fill="#eee" data-count="0" data-date="2022-11-25" onmouseover="undefined" d="M343 91h12v12h-12z"/><path class="cg-day" fill="#eee" data-count="0" data-date="2022-11-26" onmouseover="undefined" d="M343 105h12v12h-12z"/></g><g><path class="cg-day" fill="#eee" data-count="0" data-date="2022-11-27" onmouseover="undefined" d="M357 21h12v12h-12z"/><path class="cg-day" fill="#eee" data-count="0" data-date="2022-11-28" onmouseover="undefined" d="M357 35h12v12h-12z"/><path class="cg-day" fill="#eee" data-count="0" data-date="2022-11-29" onmouseover="undefined" d="M357 49h12v12h-12z"/><path class="cg-day" fill="#eee" data-count="0" data-date="2022-11-30" onmouseover="undefined" d="M357 63h12v12h-12z"/><path class="cg-day" fill="#eee" data-count="0" data-date="2022-12-01" onmouseover="undefined" d="M357 77h12v12h-12z"/><path class="cg-day" fill="#eee" data-count="0" data-date="2022-12-02" onmouseover="undefined" d="M357 91h12v12h-12z"/><path class="cg-day" fill="#eee" data-count="0" data-date="2022-12-03" onmouseover="undefined" d="M357 105h12v12h-12z"/></g><g><path class="cg-day" fill="#eee" data-count="0" data-date="2022-12-04" onmouseover="undefined" d="M371 21h12v12h-12z"/><path class="cg-day" fill="#eee" data-count="0" data-date="2022-12-05" onmouseover="undefined" d="M371 35h12v12h-12z"/><path class="cg-day" fill="#eee" data-count="0" data-date="2022-12-06" onmouseover="undefined" d="M371 49h12v12h-12z"/><path class="cg-day" fill="#eee" data-count="0" data-date="2022-12-07" onmouseover="undefined" d="M371 63h12v12h-12z"/><path class="cg-day" fill="#eee" data-count="0" data-date="2022-12-08" onmouseover="undefined" d="M371 77h12v12h-12z"/><path class="cg-day" fill="#eee" data-count="0" data-date="2022-12-09" onmouseover="undefined" d="M371 91h12v12h-12z"/><path class="cg-day" fill="#eee" data-count="0" data-date="2022-12-10" onmouseover="undefined" d="M371 105h12v12h-12z"/></g><g><path class="cg-day" fill="#eee" data-count="0" data-date="2022-12-11" onmouseover="undefined" d="M385 21h12v12h-12z"/><path class="cg-day" fill="#eee" data-count="0" data-date="2022-12-12" onmouseover="undefined" d="M385 35h12v12h-12z"/><path class="cg-day" fill="#eee" data-count="0" data-date="2022-12-13" onmouseover="undefined" d="M385 49h12v12h-12z"/><path class="cg-day" fill="#eee" data-count="0" data-date="2022-12-14" onmouseover="undefined" d="M385 63h12v12h-12z"/><path class="cg-day" fill="#eee" data-count="0" data-date="2022-12-15" onmouseover="undefined" d="M385 77h12v12h-12z"/><path class="cg-day" fill="#eee" data-count="0" data-date="2022-12-16" onmouseover="undefined" d="M385 91h12v12h-12z"/><path class="cg-day" fill="#eee" data-count="0" data-date="2022-12-17" onmouseover="undefined" d="M385 105h12v12h-12z"/></g><g><path class="cg-day" fill="#eee" data-count="0" data-date="2022-12-18" onmouseover="undefined" d="M399 21h12v12h-12z"/><path class="cg-day" fill="#eee" data-count="0" data-date="2022-12-19" onmouseover="undefined" d="M399 35h12v12h-12z"/><path class="cg-day" fill="#eee" data-count="0" data-date="2022-12-20" onmouseover="undefined" d="M399 49h12v12h-12z"/><path class="cg-day" fill="#eee" data-count="0" data-date="2022-12-21" onmouseover="undefined" d="M399 63h12v12h-12z"/><path class="cg-day" fill="#eee" data-count="0" data-date="2022-12-22" onmouseover="undefined" d="M399 77h12v12h-12z"/><path class="cg-day" fill="#eee" data-count="0" data-date="2022-12-23" onmouseover="undefined" d="M399 91h12v12h-12z"/><path class="cg-day" fill="#eee" data-count="0" data-date="2022-12-24" onmouseover="undefined" d="M399 105h12v12h-12z"/></g><g><path class="cg-day" fill="#eee" data-count="0" data-date="2022-12-25" onmouseover="undefined" d="M413 21h12v12h-12z"/><path class="cg-day" fill="#eee" data-count="0" data-date="2022-12-26" onmouseover="undefined" d="M413 35h12v12h-12z"/><path class="cg-day" fill="#eee" data-count="0" data-date="2022-12-27" onmouseover="undefined" d="M413 49h12v12h-12z"/><path class="cg-day" fill="#eee" data-count="0" data-date="2022-12-28" onmouseover="undefined" d="M413 63h12v12h-12z"/><path class="cg-day" fill="#eee" data-count="0" data-date="2022-12-29" onmouseover="undefined" d="M413 77h12v12h-12z"/><path class="cg-day" fill="#eee" data-count="0" data-date="2022-12-30" onmouseover="undefined" d="M413 91h12v12h-12z"/><path class="cg-day" fill="#eee" data-count="0" data-date="2022-12-31" onmouseover="undefined" d="M413 105h12v12h-12z"/></g><g><path class="cg-day" fill="#eee" data-count="0" data-date="2023-01-01" onmouseover="undefined" d="M427 21h12v12h-12z"/><path class="cg-day" fill="#eee" data-count="0" data-date="2023-01-02" onmouseover="undefined" d="M427 35h12v12h-12z"/><path class="cg-day" fill="#eee" data-count="0" data-date="2023-01-03" onmouseover="undefined" d="M427 49h12v12h-12z"/><path class="cg-day" fill="#eee" data-count="0" data-date="2023-01-04" onmouseover="undefined" d="M427 63h12v12h-12z"/><path class="cg-day" fill="#eee" data-count="0" data-date="2023-01-05" onmouseover="undefined" d="M427 77h12v12h-12z"/><path class="cg-day" fill="#eee" data-count="0" data-date="2023-01-06" onmouseover="undefined" d="M427 91h12v12h-12z"/><path class="cg-day" fill="#eee" data-count="0" data-date="2023-01-07" onmouseover="undefined" d="M427 105h12v12h-12z"/></g><g><path class="cg-day" fill="#eee" data-count="0" data-date="2023-01-08" onmouseover="undefined" d="M441 21h12v12h-12z"/><path class="cg-day" fill="#eee" data-count="0" data-date="2023-01-09" onmouseover="undefined" d="M441 35h12v12h-12z"/><path class="cg-day" fill="#eee" data-count="0" data-date="2023-01-10" onmouseover="undefined" d="M441 49h12v12h-12z"/><path class="cg-day" fill="#eee" data-count="0" data-date="2023-01-11" onmouseover="undefined" d="M441 63h12v12h-12z"/><path class="cg-day" fill="#eee" data-count="0" data-date="2023-01-12" onmouseover="undefined" d="M441 77h12v12h-12z"/><path class="cg-day" fill="#eee" data-count="0" data-date="2023-01-13" onmouseover="undefined" d="M441 91h12v12h-12z"/><path class="cg-day" fill="#eee" data-count="0" data-date="2023-01-14" onmouseover="undefined" d="M441 105h12v12h-12z"/></g><g><path class="cg-day" fill="#eee" data-count="0" data-date="2023-01-15" onmouseover="undefined" d="M455 21h12v12h-12z"/><path class="cg-day" fill="#eee" data-count="0" data-date="2023-01-16" onmouseover="undefined" d="M455 35h12v12h-12z"/><path class="cg-day" fill="#eee" data-count="0" data-date="2023-01-17" onmouseover="undefined" d="M455 49h12v12h-12z"/><path class="cg-day" fill="#eee" data-count="0" data-date="2023-01-18" onmouseover="undefined" d="M455 63h12v12h-12z"/><path class="cg-day" fill="#eee" data-count="0" data-date="2023-01-19" onmouseover="undefined" d="M455 77h12v12h-12z"/><path class="cg-day" fill="#eee" data-count="0" data-date="2023-01-20" onmouseover="undefined" d="M455 91h12v12h-12z"/><path class="cg-day" fill="#eee" data-count="0" data-date="2023-01-21" onmouseover="undefined" d="M455 105h12v12h-12z"/></g><g><path class="cg-day" fill="#eee" data-count="0" data-date="2023-01-22" onmouseover="undefined" d="M469 21h12v12h-12z"/><path class="cg-day" fill="#eee" data-count="0" data-date="2023-01-23" onmouseover="undefined" d="M469 35h12v12h-12z"/><path class="cg-day" fill="#eee" data-count="0" data-date="2023-01-24" onmouseover="undefined" d="M469 49h12v12h-12z"/><path class="cg-day" fill="#eee" data-count="0" data-date="2023-01-25" onmouseover="undefined" d="M469 63h12v12h-12z"/><path class="cg-day" fill="#eee" data-count="0" data-date="2023-01-26" onmouseover="undefined" d="M469 77h12v12h-12z"/><path class="cg-day" fill="#eee" data-count="0" data-date="2023-01-27" onmouseover="undefined" d="M469 91h12v12h-12z"/><path class="cg-day" fill="#eee" data-count="0" data-date="2023-01-28" onmouseover="undefined" d="M469 105h12v12h-12z"/></g><g><path class="cg-day" fill="#eee" data-count="0" data-date="2023-01-29" onmouseover="undefined" d="M483 21h12v12h-12z"/><path class="cg-day" fill="#eee" data-count="0" data-date="2023-01-30" onmouseover="undefined" d="M483 35h12v12h-12z"/><path class="cg-day" fill="#eee" data-count="0" data-date="2023-01-31" onmouseover="undefined" d="M483 49h12v12h-12z"/><path class="cg-day" fill="#eee" data-count="0" data-date="2023-02-01" onmouseover="undefined" d="M483 63h12v12h-12z"/><path class="cg-day" fill="#eee" data-count="0" data-date="2023-02-02" onmouseover="undefined" d="M483 77h12v12h-12z"/><path class="cg-day" fill="#eee" data-count="0" data-date="2023-02-03" onmouseover="undefined" d="M483 91h12v12h-12z"/><path class="cg-day" fill="#eee" data-count="0" data-date="2023-02-04" onmouseover="undefined" d="M483 105h12v12h-12z"/></g><g><path class="cg-day" fill="#eee" data-count="0" data-date="2023-02-05" onmouseover="undefined" d="M497 21h12v12h-12z"/><path class="cg-day" fill="#eee" data-count="0" data-date="2023-02-06" onmouseover="undefined" d="M497 35h12v12h-12z"/><path class="cg-day" fill="#eee" data-count="0" data-date="2023-02-07" onmouseover="undefined" d="M497 49h12v12h-12z"/><path class="cg-day" fill="#eee" data-count="0" data-date="2023-02-08" onmouseover="undefined" d="M497 63h12v12h-12z"/><path class="cg-day" fill="#eee" data-count="0" data-date="2023-02-09" onmouseover="undefined" d="M497 77h12v12h-12z"/><path class="cg-day" fill="#eee" data-count="0" data-date="2023-02-10" onmouseover="undefined" d="M497 91h12v12h-12z"/><path class="cg-day" fill="#eee" data-count="0" data-date="2023-02-11" onmouseover="undefined" d="M497 105h12v12h-12z"/></g><g><path class="cg-day" fill="#eee" data-count="0" data-date="2023-02-12" onmouseover="undefined" d="M511 21h12v12h-12z"/><path class="cg-day" fill="#eee" data-count="0" data-date="2023-02-13" onmouseover="undefined" d="M511 35h12v12h-12z"/><path class="cg-day" fill="#eee" data-count="0" data-date="2023-02-14" onmouseover="undefined" d="M511 49h12v12h-12z"/><path class="cg-day" fill="#eee" data-count="0" data-date="2023-02-15" onmouseover="undefined" d="M511 63h12v12h-12z"/><path class="cg-day" fill="#eee" data-count="0" data-date="2023-02-16" onmouseover="undefined" d="M511 77h12v12h-12z"/><path class="cg-day" fill="#eee" data-count="0" data-date="2023-02-17" onmouseover="undefined" d="M511 91h12v12h-12z"/><path class="cg-day" fill="#eee" data-count="0" data-date="2023-02-18" onmouseover="undefined" d="M511 105h12v12h-12z"/></g><g><path class="cg-day" fill="#eee" data-count="0" data-date="2023-02-19" onmouseover="undefined" d="M525 21h12v12h-12z"/><path class="cg-day" fill="#eee" data-count="0" data-date="2023-02-20" onmouseover="undefined" d="M525 35h12v12h-12z"/><path class="cg-day" fill="#eee" data-count="0" data-date="2023-02-21" onmouseover="undefined" d="M525 49h12v12h-12z"/><path class="cg-day" fill="#eee" data-count="0" data-date="2023-02-22" onmouseover="undefined" d="M525 63h12v12h-12z"/><path class="cg-day" fill="#eee" data-count="0" data-date="2023-02-23" onmouseover="undefined" d="M525 77h12v12h-12z"/><path class="cg-day" fill="#eee" data-count="0" data-date="2023-02-24" onmouseover="undefined" d="M525 91h12v12h-12z"/><path class="cg-day" fill="#eee" data-count="0" data-date="2023-02-25" onmouseover="undefined" d="M525 105h12v12h-12z"/></g><g><path class="cg-day" fill="#eee" data-count="0" data-date="2023-02-26" onmouseover="undefined" d="M539 21h12v12h-12z"/><path class="cg-day" fill="#eee" data-count="0" data-date="2023-02-27" onmouseover="undefined" d="M539 35h12v12h-12z"/><path class="cg-day" fill="#eee" data-count="0" data-date="2023-02-28" onmouseover="undefined" d="M539 49h12v12h-12z"/><path class="cg-day" fill="#eee" data-count="0" data-date="2023-03-01" onmouseover="undefined" d="M539 63h12v12h-12z"/><path class="cg-day" fill="#eee" data-count="0" data-date="2023-03-02" onmouseover="undefined" d="M539 77h12v12h-12z"/><path class="cg-day" fill="#eee" data-count="0" data-date="2023-03-03" onmouseover="undefined" d="M539 91h12v12h-12z"/><path class="cg-day" fill="#eee" data-count="0" data-date="2023-03-04" onmouseover="undefined" d="M539 105h12v12h-12z"/></g><g><path class="cg-day" fill="#eee" data-count="0" data-date="2023-03-05" onmouseover="undefined" d="M553 21h12v12h-12z"/><path class="cg-day" fill="#eee" data-count="0" data-date="2023-03-06" onmouseover="undefined" d="M553 35h12v12h-12z"/><path class="cg-day" fill="#eee" data-count="0" data-date="2023-03-07" onmouseover="undefined" d="M553 49h12v12h-12z"/><path class="cg-day" fill="#eee" data-count="0" data-date="2023-03-08" onmouseover="undefined" d="M553 63h12v12h-12z"/><path class="cg-day" fill="#eee" data-count="0" data-date="2023-03-09" onmouseover="undefined" d="M553 77h12v12h-12z"/><path class="cg-day" fill="#eee" data-count="0" data-date="2023-03-10" onmouseover="undefined" d="M553 91h12v12h-12z"/><path class="cg-day" fill="#eee" data-count="0" data-date="2023-03-11" onmouseover="undefined" d="M553 105h12v12h-12z"/></g><g><path class="cg-day" fill="#eee" data-count="0" data-date="2023-03-12" onmouseover="undefined" d="M567 21h12v12h-12z"/><path class="cg-day" fill="#eee" data-count="0" data-date="2023-03-13" onmouseover="undefined" d="M567 35h12v12h-12z"/><path class="cg-day" fill="#eee" data-count="0" data-date="2023-03-14" onmouseover="undefined" d="M567 49h12v12h-12z"/><path class="cg-day" fill="#eee" data-count="0" data-date="2023-03-15" onmouseover="undefined" d="M567 63h12v12h-12z"/><path class="cg-day" fill="#eee" data-count="0" data-date="2023-03-16" onmouseover="undefined" d="M567 77h12v12h-12z"/><path class="cg-day" fill="#eee" data-count="0" data-date="2023-03-17" onmouseover="undefined" d="M567 91h12v12h-12z"/><path class="cg-day" fill="#eee" data-count="0" data-date="2023-03-18" onmouseover="undefined" d="M567 105h12v12h-12z"/></g><g><path class="cg-day" fill="#eee" data-count="0" data-date="2023-03-19" onmouseover="undefined" d="M581 21h12v12h-12z"/><path class="cg-day" fill="#eee" data-count="0" data-date="2023-03-20" onmouseover="undefined" d="M581 35h12v12h-12z"/><path class="cg-day" fill="#eee" data-count="0" data-date="2023-03-21" onmouseover="undefined" d="M581 49h12v12h-12z"/><path class="cg-day" fill="#eee" data-count="0" data-date="2023-03-22" onmouseover="undefined" d="M581 63h12v12h-12z"/><path class="cg-day" fill="#eee" data-count="0" data-date="2023-03-23" onmouseover="undefined" d="M581 77h12v12h-12z"/><path class="cg-day" fill="#eee" data-count="0" data-date="2023-03-24" onmouseover="undefined" d="M581 91h12v12h-12z"/><path class="cg-day" fill="#eee" data-count="0" data-date="2023-03-25" onmouseover="undefined" d="M581 105h12v12h-12z"/></g><g><path class="cg-day" fill="#eee" data-count="0" data-date="2023-03-26" onmouseover="undefined" d="M595 21h12v12h-12z"/><path class="cg-day" fill="#eee" data-count="0" data-date="2023-03-27" onmouseover="undefined" d="M595 35h12v12h-12z"/><path class="cg-day" fill="#eee" data-count="0" data-date="2023-03-28" onmouseover="undefined" d="M595 49h12v12h-12z"/><path class="cg-day" fill="#eee" data-count="0" data-date="2023-03-29" onmouseover="undefined" d="M595 63h12v12h-12z"/><path class="cg-day" fill="#eee" data-count="0" data-date="2023-03-30" onmouseover="undefined" d="M595 77h12v12h-12z"/><path class="cg-day" fill="#eee" data-count="0" data-date="2023-03-31" onmouseover="undefined" d="M595 91h12v12h-12z"/><path class="cg-day" fill="#eee" data-count="0" data-date="2023-04-01" onmouseover="undefined" d="M595 105h12v12h-12z"/></g><g><path class="cg-day" fill="#eee" data-count="0" data-date="2023-04-02" onmouseover="undefined" d="M609 21h12v12h-12z"/><path class="cg-day" fill="#eee" data-count="0" data-date="2023-04-03" onmouseover="undefined" d="M609 35h12v12h-12z"/><path class="cg-day" fill="#eee" data-count="0" data-date="2023-04-04" onmouseover="undefined" d="M609 49h12v12h-12z"/><path class="cg-day" fill="#eee" data-count="0" data-date="2023-04-05" onmouseover="undefined" d="M609 63h12v12h-12z"/><path class="cg-day" fill="#eee" data-count="0" data-date="2023-04-06" onmouseover="undefined" d="M609 77h12v12h-12z"/><path class="cg-day" fill="#eee" data-count="0" data-date="2023-04-07" onmouseover="undefined" d="M609 91h12v12h-12z"/><path class="cg-day" fill="#eee" data-count="0" data-date="2023-04-08" onmouseover="undefined" d="M609 105h12v12h-12z"/></g><g><path class="cg-day" fill="#eee" data-count="0" data-date="2023-04-09" onmouseover="undefined" d="M623 21h12v12h-12z"/><path class="cg-day" fill="#eee" data-count="0" data-date="2023-04-10" onmouseover="undefined" d="M623 35h12v12h-12z"/><path class="cg-day" fill="#eee" data-count="0" data-date="2023-04-11" onmouseover="undefined" d="M623 49h12v12h-12z"/><path class="cg-day" fill="#eee" data-count="0" data-date="2023-04-12" onmouseover="undefined" d="M623 63h12v12h-12z"/><path class="cg-day" fill="#eee" data-count="0" data-date="2023-04-13" onmouseover="undefined" d="M623 77h12v12h-12z"/><path class="cg-day" fill="#eee" data-count="0" data-date="2023-04-14" onmouseover="undefined" d="M623 91h12v12h-12z"/><path class="cg-day" fill="#eee" data-count="0" data-date="2023-04-15" onmouseover="undefined" d="M623 105h12v12h-12z"/></g><g><path class="cg-day" fill="#eee" data-count="0" data-date="2023-04-16" onmouseover="undefined" d="M637 21h12v12h-12z"/><path class="cg-day" fill="#eee" data-count="0" data-date="2023-04-17" onmouseover="undefined" d="M637 35h12v12h-12z"/><path class="cg-day" fill="#eee" data-count="0" data-date="2023-04-18" onmouseover="undefined" d="M637 49h12v12h-12z"/><path class="cg-day" fill="#eee" data-count="0" data-date="2023-04-19" onmouseover="undefined" d="M637 63h12v12h-12z"/><path class="cg-day" fill="#eee" data-count="0" data-date="2023-04-20" onmouseover="undefined" d="M637 77h12v12h-12z"/><path class="cg-day" fill="#eee" data-count="0" data-date="2023-04-21" onmouseover="undefined" d="M637 91h12v12h-12z"/><path class="cg-day" fill="#eee" data-count="0" data-date="2023-04-22" onmouseover="undefined" d="M637 105h12v12h-12z"/></g><g><path class="cg-day" fill="#eee" data-count="0" data-date="2023-04-23" onmouseover="undefined" d="M651 21h12v12h-12z"/><path class="cg-day" fill="#eee" data-count="0" data-date="2023-04-24" onmouseover="undefined" d="M651 35h12v12h-12z"/><path class="cg-day" fill="#eee" data-count="0" data-date="2023-04-25" onmouseover="undefined" d="M651 49h12v12h-12z"/><path class="cg-day" fill="#eee" data-count="0" data-date="2023-04-26" onmouseover="undefined" d="M651 63h12v12h-12z"/><path class="cg-day" fill="#eee" data-count="0" data-date="2023-04-27" onmouseover="undefined" d="M651 77h12v12h-12z"/><path class="cg-day" fill="#eee" data-count="0" data-date="2023-04-28" onmouseover="undefined" d="M651 91h12v12h-12z"/><path class="cg-day" fill="#eee" data-count="0" data-date="2023-04-29" onmouseover="undefined" d="M651 105h12v12h-12z"/></g><g><path class="cg-day" fill="#eee" data-count="0" data-date="2023-04-30" onmouseover="undefined" d="M665 21h12v12h-12z"/><path class="cg-day" fill="#eee" data-count="0" data-date="2023-05-01" onmouseover="undefined" d="M665 35h12v12h-12z"/><path class="cg-day" fill="#eee" data-count="0" data-date="2023-05-02" onmouseover="undefined" d="M665 49h12v12h-12z"/><path class="cg-day" fill="#eee" data-count="0" data-date="2023-05-03" onmouseover="undefined" d="M665 63h12v12h-12z"/><path class="cg-day" fill="#eee" data-count="0" data-date="2023-05-04" onmouseover="undefined" d="M665 77h12v12h-12z"/><path class="cg-day" fill="#eee" data-count="0" data-date="2023-05-05" onmouseover="undefined" d="M665 91h12v12h-12z"/><path class="cg-day" fill="#eee" data-count="0" data-date="2023-05-06" onmouseover="undefined" d="M665 105h12v12h-12z"/></g><g><path class="cg-day" fill="#eee" data-count="0" data-date="2023-05-07" onmouseover="undefined" d="M679 21h12v12h-12z"/><path class="cg-day" fill="#eee" data-count="0" data-date="2023-05-08" onmouseover="undefined" d="M679 35h12v12h-12z"/><path class="cg-day" fill="#eee" data-count="0" data-date="2023-05-09" onmouseover="undefined" d="M679 49h12v12h-12z"/><path class="cg-day" fill="#eee" data-count="0" data-date="2023-05-10" onmouseover="undefined" d="M679 63h12v12h-12z"/><path class="cg-day" fill="#eee" data-count="0" data-date="2023-05-11" onmouseover="undefined" d="M679 77h12v12h-12z"/><path class="cg-day" fill="#eee" data-count="0" data-date="2023-05-12" onmouseover="undefined" d="M679 91h12v12h-12z"/><path class="cg-day" fill="#eee" data-count="0" data-date="2023-05-13" onmouseover="undefined" d="M679 105h12v12h-12z"/></g><g><path class="cg-day" fill="#eee" data-count="0" data-date="2023-05-14" onmouseover="undefined" d="M693 21h12v12h-12z"/><path class="cg-day" fill="#eee" data-count="0" data-date="2023-05-15" onmouseover="undefined" d="M693 35h12v12h-12z"/><path class="cg-day" fill="#eee" data-count="0" data-date="2023-05-16" onmouseover="undefined" d="M693 49h12v12h-12z"/><path class="cg-day" fill="#eee" data-count="0" data-date="2023-05-17" onmouseover="undefined" d="M693 63h12v12h-12z"/><path class="cg-day" fill="#eee" data-count="0" data-date="2023-05-18" onmouseover="undefined" d="M693 77h12v12h-12z"/><path class="cg-day" fill="#eee" data-count="0" data-date="2023-05-19" onmouseover="undefined" d="M693 91h12v12h-12z"/><path class="cg-day" fill="#eee" data-count="0" data-date="2023-05-20" onmouseover="undefined" d="M693 105h12v12h-12z"/></g><g><path class="cg-day" fill="#eee" data-count="0" data-date="2023-05-21" onmouseover="undefined" d="M707 21h12v12h-12z"/><path class="cg-day" fill="#eee" data-count="0" data-date="2023-05-22" onmouseover="undefined" d="M707 35h12v12h-12z"/><path class="cg-day" fill="#eee" data-count="0" data-date="2023-05-23" onmouseover="undefined" d="M707 49h12v12h-12z"/><path class="cg-day" fill="#eee" data-count="0" data-date="2023-05-24" onmouseover="undefined" d="M707 63h12v12h-12z"/><path class="cg-day" fill="#eee" data-count="0" data-date="2023-05-25" onmouseover="undefined" d="M707 77h12v12h-12z"/><path class="cg-day" fill="#eee" data-count="0" data-date="2023-05-26" onmouseover="undefined" d="M707 91h12v12h-12z"/><path class="cg-day" fill="#eee" data-count="0" data-date="2023-05-27" onmouseover="undefined" d="M707 105h12v12h-12z"/></g><g><path class="cg-day" fill="#eee" data-count="0" data-date="2023-05-28" onmouseover="undefined" d="M721 21h12v12h-12z"/><path class="cg-day" fill="#eee" data-count="0" data-date="2023-05-29" onmouseover="undefined" d="M721 35h12v12h-12z"/><path class="cg-day" fill="#eee" data-count="0" data-date="2023-05-30" onmouseover="undefined" d="M721 49h12v12h-12z"/><path class="cg-day" fill="#eee" data-count="0" data-date="2023-05-31" onmouseover="undefined" d="M721 63h12v12h-12z"/><path class="cg-day" fill="#eee" data-count="0" data-date="2023-06-01" onmouseover="undefined" d="M721 77h12v12h-12z"/><path class="cg-day" fill="#eee" data-count="0" data-date="2023-06-02" onmouseover="undefined" d="M721 91h12v12h-12z"/><path class="cg-day" fill="#eee" data-count="0" data-date="2023-06-03" onmouseover="undefined" d="M721 105h12v12h-12z"/></g><g><path class="cg-day" fill="#eee" data-count="0" data-date="2023-06-04" onmouseover="undefined" d="M735 21h12v12h-12z"/><path class="cg-day" fill="#eee" data-count="0" data-date="2023-06-05" onmouseover="undefined" d="M735 35h12v12h-12z"/><path class="cg-day" fill="#eee" data-count="0" data-date="2023-06-06" onmouseover="undefined" d="M735 49h12v12h-12z"/><path class="cg-day" fill="#eee" data-count="0" data-date="2023-06-07" onmouseover="undefined" d="M735 63h12v12h-12z"/><path class="cg-day" fill="#eee" data-count="0" data-date="2023-06-08" onmouseover="undefined" d="M735 77h12v12h-12z"/><path class="cg-day" fill="#eee" data-count="0" data-date="2023-06-09" onmouseover="undefined" d="M735 91h12v12h-12z"/><path class="cg-day" fill="#eee" data-count="0" data-date="2023-06-10" onmouseover="undefined" d="M735 105h12v12h-12z"/></g><g><path class="cg-day" fill="#eee" data-count="0" data-date="2023-06-11" onmouseover="undefined" d="M749 21h12v12h-12z"/><path class="cg-day" fill="#eee" data-count="0" data-date="2023-06-12" onmouseover="undefined" d="M749 35h12v12h-12z"/><path class="cg-day" fill="#eee" data-count="0" data-date="2023-06-13" onmouseover="undefined" d="M749 49h12v12h-12z"/><path class="cg-day" fill="#eee" data-count="0" data-date="2023-06-14" onmouseover="undefined" d="M749 63h12v12h-12z"/><path class="cg-day" fill="#eee" data-count="0" data-date="2023-06-15" onmouseover="undefined" d="M749 77h12v12h-12z"/></g><g fill="#959494" font-size="12" font-family="-apple-system,BlinkMacSystemFont,&quot;Segoe UI&quot;,Roboto,&quot;Helvetica Neue&quot;,Arial,sans-serif" dominant-baseline="central"><text x="35" y="10">Jun</text><text x="77" y="10">Jul</text><text x="133" y="10">Aug</text><text x="189" y="10">Sep</text><text x="245" y="10">Oct</text><text x="315" y="10">Nov</text><text x="371" y="10">Dec</text><text x="427" y="10">Jan</text><text x="497" y="10">Feb</text><text x="553" y="10">Mar</text><text x="609" y="10">Apr</text><text x="679" y="10">May</text><text x="735" y="10">Jun</text></g><g fill="#959494" font-size="12" font-family="-apple-system,BlinkMacSystemFont,&quot;Segoe UI&quot;,Roboto,&quot;Helvetica Neue&quot;,Arial,sans-serif" dominant-baseline="central"><text x="10" y="41">M</text><text x="10" y="69">W</text><text x="10" y="97">F</text></g></svg>