<svg width="782" height="128" xmlns="http://www.w3.org/2000/svg"><path fill="#fff" d="M0 0h782v128H0z"/><path class="cg-day" fill="#eee" data-count="0" data-date="2022-06-15" d="M21 63h12v12H21z"/><path class="cg-day" fill="#eee" data-count="0" data-date="2022-06-16" d="M21 77h12v12H21z"/><path class="cg-day" fill="#eee" data-count="0" data-date="2022-06-17" d="M21 91h12v12H21z"/><path class="cg-day" fill="#eee" data-count="0" data-date="2022-06-18" d="M21 105h12v12H21z"/><path class="cg-day" fill="#eee" data-count="0" data-date="2022-06-19" d="M35 21h12v12H35z"/><path class="cg-day" fill="#eee" data-count="0" data-date="2022-06-20" d="M35 35h12v12H35z"/><path class="cg-day" fill="#eee" data-count="0" data-date="2022-06-21" d="M35 49h12v12H35z"/><path class="cg-day" fill="#eee" data-count="0" data-date="2022-06-22" d="M35 63h12v12H35z"/><path class="cg-day" fill="#eee" data-count="0" data-date="2022-06-23" d="M35 77h12v12H35z"/><path class="cg-day" fill="#eee" data-count="0" data-date="2022-06-24" d="M35 91h12v12H35z"/><path class="cg-day" fill="#eee" data-count="0" data-date="2022-06-25" d="M35 105h12v12H35z"/><path class="cg-day" fill="#eee" data-count="0" data-date="2022-06-26" d="M49 21h12v12H49z"/><path class="cg-day" fill="#eee" data-count="0" data-date="2022-06-27" d="M49 35h12v12H49z"/><path class="cg-day" fill="#eee" data-count="0" data-date="2022-06-28" d="M49 49h12v12H49z"/><path class="cg-day" fill="#eee" data-count="0" data-date="2022-06-29" d="M49 63h12v12H49z"/><path class="cg-day" fill="#eee" data-count="0" data-date="2022-06-30" d="M49 77h12v12H49z"/><path class="cg-day" fill="#eee" data-count="0" data-date="2022-07-01" d="M49 91h12v12H49z"/><path class="cg-day" fill="#c6e48b" data-count="1" data-date="2022-07-02" data-daynum="2" d="M49 105h12v12H49z"/><path class="cg-day" fill="#eee" data-count="0" data-date="2022-07-03" d="M63 21h12v12H63z"/><path class="cg-day" fill="#eee" data-count="0" data-date="2022-07-04" d="M63 35h12v12H63z"/><path class="cg-day" fill="#7bc96f" data-count="18" data-date="2022-07-05" data-daynum="3" d="M63 49h12v12H63z"/><path class="cg-day" fill="#239a3b" data-count="35" data-date="2022-07-06" data-daynum="4" d="M63 63h12v12H63z"/><path class="cg-day" fill="#239a3b" data-count="31" data-date="2022-07-07" data-daynum="5" d="M63 77h12v12H63z"/><path class="cg-day" fill="#7bc96f" data-count="28" data-date="2022-07-08" data-daynum="6" d="M63 91h12v12H63z"/><path class="cg-day" fill="#eee" data-count="0" data-date="2022-07-09" d="M63 105h12v12H63z"/><path class="cg-day" fill="#eee" data-count="0" data-date="2022-07-10" d="M77 21h12v12H77z"/><path class="cg-day" fill="#eee" data-count="0" data-date="2022-07-11" d="M77 35h12v12H77z"/><path class="cg-day" fill="#eee" data-count="0" data-date="2022-07-12" d="M77 49h12v12H77z"/><path class="cg-day" fill="#eee" data-count="0" data-date="2022-07-13" d="M77 63h12v12H77z"/><path class="cg-day" fill="#c6e48b" data-count="15" data-date="2022-07-14" data-daynum="7" d="M77 77h12v12H77z"/><path class="cg-day" fill="#239a3b" data-count="42" data-date="2022-07-15" data-daynum="8" d="M77 91h12v12H77z"/><path class="cg-day" fill="#239a3b" data-count="32" data-date="2022-07-16" data-daynum="9" d="M77 105h12v12H77z"/><path class="cg-day" fill="#7bc96f" data-count="23" data-date="2022-07-17" data-daynum="10" d="M91 21h12v12H91z"/><path class="cg-day" fill="#196127" data-count="58" data-date="2022-07-18" data-daynum="11" d="M91 35h12v12H91z"/><path class="cg-day" fill="#eee" data-count="0" data-date="2022-07-19" d="M91 49h12v12H91z"/><path class="cg-day" fill="#eee" data-count="0" data-date="2022-07-20" d="M91 63h12v12H91z"/><path class="cg-day" fill="#eee" data-count="0" data-date="2022-07-21" d="M91 77h12v12H91z"/><path class="cg-day" fill="#eee" data-count="0" data-date="2022-07-22" d="M91 91h12v12H91z"/><path class="cg-day" fill="#eee" data-count="0" data-date="2022-07-23" d="M91 105h12v12H91z"/><path class="cg-day" fill="#eee" data-count="0" data-date="2022-07-24" d="M105 21h12v12h-12z"/><path class="cg-day" fill="#eee" data-count="0" data-date="2022-07-25" d="M105 35h12v12h-12z"/><path class="cg-day" fill="#eee" data-count="0" data-date="2022-07-26" d="M105 49h12v12h-12z"/><path class="cg-day" fill="#eee" data-count="0" data-date="2022-07-27" d="M105 63h12v12h-12z"/><path class="cg-day" fill="#eee" data-count="0" data-date="2022-07-28" d="M105 77h12v12h-12z"/><path class="cg-day" fill="#eee" data-count="0" data-date="2022-07-29" d="M105 91h12v12h-12z"/><path class="cg-day" fill="#eee" data-count="0" data-date="2022-07-30" d="M105 105h12v12h-12z"/><path class="cg-day" fill="#eee" data-count="0" data-date="2022-07-31" d="M119 21h12v12h-12z"/><path class="cg-day" fill="#239a3b" data-count="32" data-date="2022-08-01" data-daynum="12" d="M119 35h12v12h-12z"/><path class="cg-day" fill="#eee" data-count="0" data-date="2022-08-02" d="M119 49h12v12h-12z"/><path class="cg-day" fill="#eee" data-count="0" data-date="2022-08-03" d="M119 63h12v12h-12z"/><path class="cg-day" fill="#eee" data-count="0" data-date="2022-08-04" d="M119 77h12v12h-12z"/><path class="cg-day" fill="#eee" data-count="0" data-date="2022-08-05" d="M119 91h12v12h-12z"/><path class="cg-day" fill="#eee" data-count="0" data-date="2022-08-06" d="M119 105h12v12h-12z"/><g><path class="cg-day" fill="#eee" data-count="0" data-date="2022-08-07" d="M133 21h12v12h-12z"/><path class="cg-day" fill="#eee" data-count="0" data-date="2022-08-08" d="M133 35h12v12h-12z"/><path class="cg-day" fill="#eee" data-count="0" data-date="2022-08-09" d="M133 49h12v12h-12z"/><path class="cg-day" fill="#eee" data-count="0" data-date="2022-08-10" d="M133 63h12v12h-12z"/><path class="cg-day" fill="#eee" data-count="0" data-date="2022-08-11" d="M133 77h12v12h-12z"/><path class="cg-day" fill="#196127" data-count="49" data-date="2022-08-12" data-daynum="13" d="M133 91h12v12h-12z"/><path class="cg-day" fill="#eee" data-count="0" data-date="2022-08-13" d="M133 105h12v12h-12z"/></g><g><path class="cg-day" fill="#196127" data-count="121" data-date="2022-08-14" data-daynum="14" d="M147 21h12v12h-12z"/><path class="cg-day" fill="#eee" data-count="0" data-date="2022-08-15" d="M147 35h12v12h-12z"/><path class="cg-day" fill="#eee" data-count="0" data-date="2022-08-16" d="M147 49h12v12h-12z"/><path class="cg-day" fill="#eee" data-count="0" data-date="2022-08-17" d="M147 63h12v12h-12z"/><path class="cg-day" fill="#eee" data-count="0" data-date="2022-08-18" d="M147 77h12v12h-12z"/><path class="cg-day" fill="#eee" data-count="0" data-date="2022-08-19" d="M147 91h12v12h-12z"/><path class="cg-day" fill="#eee" data-count="0" data-date="2022-08-20" d="M147 105h12v12h-12z"/></g><g><path class="cg-day" fill="#239a3b" data-count="43" data-date="2022-08-21" data-daynum="15" d="M161 21h12v12h-12z"/><path class="cg-day" fill="#196127" data-count="53" data-date="2022-08-22" data-daynum="16" d="M161 35h12v12h-12z"/><path class="cg-day" fill="#196127" data-count="94" data-date="2022-08-23" data-daynum="17" d="M161 49h12v12h-12z"/><path class="cg-day" fill="#196127" data-count="72" data-date="2022-08-24" data-daynum="18" d="M161 63h12v12h-12z"/><path class="cg-day" fill="#7bc96f" data-count="24" data-date="2022-08-25" data-daynum="19" d="M161 77h12v12h-12z"/><path class="cg-day" fill="#eee" data-count="0" data-date="2022-08-26" d="M161 91h12v12h-12z"/><path class="cg-day" fill="#eee" data-count="0" data-date="2022-08-27" d="M161 105h12v12h-12z"/></g><g><path class="cg-day" fill="#eee" data-count="0" data-date="2022-08-28" d="M175 21h12v12h-12z"/><path class="cg-day" fill="#eee" data-count="0" data-date="2022-08-29" d="M175 35h12v12h-12z"/><path class="cg-day" fill="#eee" data-count="0" data-date="2022-08-30" d="M175 49h12v12h-12z"/><path class="cg-day" fill="#7bc96f" data-count="17" data-date="2022-08-31" data-daynum="20" d="M175 63h12v12h-12z"/><path class="cg-day" fill="#eee" data-count="0" data-date="2022-09-01" d="M175 77h12v12h-12z"/><path class="cg-day" fill="#eee" data-count="0" data-date="2022-09-02" d="M175 91h12v12h-12z"/><path class="cg-day" fill="#eee" data-count="0" data-date="2022-09-03" d="M175 105h12v12h-12z"/></g><g><path class="cg-day" fill="#eee" data-count="0" data-date="2022-09-04" d="M189 21h12v12h-12z"/><path class="cg-day" fill="#eee" data-count="0" data-date="2022-09-05" d="M189 35h12v12h-12z"/><path class="cg-day" fill="#eee" data-count="0" data-date="2022-09-06" d="M189 49h12v12h-12z"/><path class="cg-day" fill="#eee" data-count="0" data-date="2022-09-07" d="M189 63h12v12h-12z"/><path class="cg-day" fill="#eee" data-count="0" data-date="2022-09-08" d="M189 77h12v12h-12z"/><path class="cg-day" fill="#eee" data-count="0" data-date="2022-09-09" d="M189 91h12v12h-12z"/><path class="cg-day" fill="#eee" data-count="0" data-date="2022-09-10" d="M189 105h12v12h-12z"/></g><g><path class="cg-day" fill="#eee" data-count="0" data-date="2022-09-11" d="M203 21h12v12h-12z"/><path class="cg-day" fill="#eee" data-count="0" data-date="2022-09-12" d="M203 35h12v12h-12z"/><path class="cg-day" fill="#eee" data-count="0" data-date="2022-09-13" d="M203 49h12v12h-12z"/><path class="cg-day" fill="#eee" data-count="0" data-date="2022-09-14" d="M203 63h12v12h-12z"/><path class="cg-day" fill="#eee" data-count="0" data-date="2022-09-15" d="M203 77h12v12h-12z"/><path class="cg-day" fill="#eee" data-count="0" data-date="2022-09-16" d="M203 91h12v12h-12z"/><path class="cg-day" fill="#eee" data-count="0" data-date="2022-09-17" d="M203 105h12v12h-12z"/></g><g><path class="cg-day" fill="#eee" data-count="0" data-date="2022-09-18" d="M217 21h12v12h-12z"/><path class="cg-day" fill="#eee" data-count="0" data-date="2022-09-19" d="M217 35h12v12h-12z"/><path class="cg-day" fill="#eee" data-count="0" data-date="2022-09-20" d="M217 49h12v12h-12z"/><path class="cg-day" fill="#eee" data-count="0" data-date="2022-09-21" d="M217 63h12v12h-12z"/><path class="cg-day" fill="#eee" data-count="0" data-date="2022-09-22" d="M217 77h12v12h-12z"/><path class="cg-day" fill="#eee" data-count="0" data-date="2022-09-23" d="M217 91h12v12h-12z"/><path class="cg-day" fill="#eee" data-count="0" data-date="2022-09-24" d="M217 105h12v12h-12z"/></g><g><path class="cg-day" fill="#eee" data-count="0" data-date="2022-09-25" d="M231 21h12v12h-12z"/><path class="cg-day" fill="#eee" data-count="0" data-date="2022-09-26" d="M231 35h12v12h-12z"/><path class="cg-day" fill="#eee" data-count="0" data-date="2022-09-27" d="M231 49h12v12h-12z"/><path class="cg-day" fill="#eee" data-count="0" data-date="2022-09-28" d="M231 63h12v12h-12z"/><path class="cg-day" fill="#eee" data-count="0" data-date="2022-09-29" d="M231 77h12v12h-12z"/><path class="cg-day" fill="#eee" data-count="0" data-date="2022-09-30" d="M231 91h12v12h-12z"/><path class="cg-day" fill="#eee" data-count="0" data-date="2022-10-01" d="M231 105h12v12h-12z"/></g><g><path class="cg-day" fill="#eee" data-count="0" data-date="2022-10-02" d="M245 21h12v12h-12z"/><path class="cg-day" fill="#eee" data-count="0" data-date="2022-10-03" d="M245 35h12v12h-12z"/><path class="cg-day" fill="#eee" data-count="0" data-date="2022-10-04" d="M245 49h12v12h-12z"/><path class="cg-day" fill="#eee" data-count="0" data-date="2022-10-05" d="M245 63h12v12h-12z"/><path class="cg-day" fill="#eee" data-count="0" data-date="2022-10-06" d="M245 77h12v12h-12z"/><path class="cg-day" fill="#eee" data-count="0" data-date="2022-10-07" d="M245 91h12v12h-12z"/><path class="cg-day" fill="#eee" data-count="0" data-date="2022-10-08" d="M245 105h12v12h-12z"/></g><g><path class="cg-day" fill="#eee" data-count="0" data-date="2022-10-09" d="M259 21h12v12h-12z"/><path class="cg-day" fill="#eee" data-count="0" data-date="2022-10-10" d="M259 35h12v12h-12z"/><path class="cg-day" fill="#eee" data-count="0" data-date="2022-10-11" d="M259 49h12v12h-12z"/><path class="cg-day" fill="#eee" data-count="0" data-date="2022-10-12" d="M259 63h12v12h-12z"/><path class="cg-day" fill="#eee" data-count="0" data-date="2022-10-13" d="M259 77h12v12h-12z"/><path class="cg-day" fill="#eee" data-count="0" data-date="2022-10-14" d="M259 91h12v12h-12z"/><path class="cg-day" fill="#eee" data-count="0" data-date="2022-10-15" d="M259 105h12v12h-12z"/></g><g><path class="cg-day" fill="#eee" data-count="0" data-date="2022-10-16" d="M273 21h12v12h-12z"/><path class="cg-day" fill="#eee" data-count="0" data-date="2022-10-17" d="M273 35h12v12h-12z"/><path class="cg-day" fill="#eee" data-count="0" data-date="2022-10-18" d="M273 49h12v12h-12z"/><path class="cg-day" fill="#eee" data-count="0" data-date="2022-10-19" d="M273 63h12v12h-12z"/><path class="cg-day" fill="#eee" data-count="0" data-date="2022-10-20" d="M273 77h12v12h-12z"/><path class="cg-day" fill="#eee" data-count="0" data-date="2022-10-21" d="M273 91h12v12h-12z"/><path class="cg-day" fill="#eee" data-count="0" data-date="2022-10-22" d="M273 105h12v12h-12z"/></g><g><path class="cg-day" fill="#eee" data-count="0" data-date="2022-10-23" d="M287 21h12v12h-12z"/><path class="cg-day" fill="#eee" data-count="0" data-date="2022-10-24" d="M287 35h12v12h-12z"/><path class="cg-day" fill="#eee" data-count="0" data-date="2022-10-25" d="M287 49h12v12h-12z"/><path class="cg-day" fill="#eee" data-count="0" data-date="2022-10-26" d="M287 63h12v12h-12z"/><path class="cg-day" fill="#eee" data-count="0" data-date="2022-10-27" d="M287 77h12v12h-12z"/><path class="cg-day" fill="#eee" data-count="0" data-date="2022-10-28" d="M287 91h12v12h-12z"/><path class="cg-day" fill="#eee" data-count="0" data-date="2022-10-29" d="M287 105h12v12h-12z"/></g><g><path class="cg-day" fill="#eee" data-count="0" data-date="2022-10-30" d="M301 21h12v12h-12z"/><path class="cg-day" fill="#eee" data-count="0" data-date="2022-10-31" d="M301 35h12v12h-12z"/><path class="cg-day" fill="#eee" data-count="0" data-date="2022-11-01" d="M301 49h12v12h-12z"/><path class="cg-day" fill="#eee" data-count="0" data-date="2022-11-02" d="M301 63h12v12h-12z"/><path class="cg-day" fill="#eee" data-count="0" data-date="2022-11-03" d="M301 77h12v12h-12z"/><path class="cg-day" fill="#eee" data-count="0" data-date="2022-11-04" d="M301 91h12v12h-12z"/><path class="cg-day" fill="#eee" data-count="0" data-date="2022-11-05" d="M301 105h12v12h-12z"/></g><g><path class="cg-day" fill="#eee" data-count="0" data-date="2022-11-06" d="M315 21h12v12h-12z"/><path class="cg-day" fill="#eee" data-count="0" data-date="2022-11-07" d="M315 35h12v12h-12z"/><path class="cg-day" fill="#eee" data-count="0" data-date="2022-11-08" d="M315 49h12v12h-12z"/><path class="cg-day" fill="#eee" data-count="0" data-date="2022-11-09" d="M315 63h12v12h-12z"/><path class="cg-day" fill="#eee" data-count="0" data-date="2022-11-10" d="M315 77h12v12h-12z"/><path class="cg-day" fill="#eee" data-count="0" data-date="2022-11-11" d="M315 91h12v12h-12z"/><path class="cg-day" fill="#eee" data-count="0" data-date="2022-11-12" d="M315 105h12v12h-12z"/></g><g><path class="cg-day" fill="#eee" data-count="0" data-date="2022-11-13" d="M329 21h12v12h-12z"/><path class="cg-day" fill="#eee" data-count="0" data-date="2022-11-14" d="M329 35h12v12h-12z"/><path class="cg-day" fill="#eee" data-count="0" data-date="2022-11-15" d="M329 49h12v12h-12z"/><path class="cg-day" fill="#eee" data-count="0" data-date="2022-11-16" d="M329 63h12v12h-12z"/><path class="cg-day" fill="#eee" data-count="0" data-date="2022-11-17" d="M329 77h12v12h-12z"/><path class="cg-day" fill="#eee" data-count="0" data-date="2022-11-18" d="M329 91h12v12h-12z"/><path class="cg-day" fill="#eee" data-count="0" data-date="2022-11-19" d="M329 105h12v12h-12z"/></g><g><path class="cg-day" fill="#eee" data-count="0" data-date="2022-11-20" d="M343 21h12v12h-12z"/><path class="cg-day" fill="#eee" data-count="0" data-date="2022-11-21" d="M343 35h12v12h-12z"/><path class="cg-day" fill="#eee" data-count="0" data-date="2022-11-22" d="M343 49h12v12h-12z"/><path class="cg-day" fill="#eee" data-count="0" data-date="2022-11-23" d="M343 63h12v12h-12z"/><path class="cg-day" fill="#eee" data-count="0" data-date="2022-11-24" d="M343 77h12v12h-12z"/><path class="cg-day" fill="#eee" data-count="0" data-date="2022-11-25" d="M343 91h12v12h-12z"/><path class="cg-day" fill="#eee" data-count="0" data-date="2022-11-26" d="M343 105h12v12h-12z"/></g><g><path class="cg-day" fill="#eee" data-count="0" data-date="2022-11-27" d="M357 21h12v12h-12z"/><path class="cg-day" fill="#eee" data-count="0" data-date="2022-11-28" d="M357 35h12v12h-12z"/><path class="cg-day" fill="#eee" data-count="0" data-date="2022-11-29" d="M357 49h12v12h-12z"/><path class="cg-day" fill="#eee" data-count="0" data-date="2022-11-30" d="M357 63h12v12h-12z"/><path class="cg-day" fill="#eee" data-count="0" data-date="2022-12-01" d="M357 77h12v12h-12z"/><path class="cg-day" fill="#eee" data-count="0" data-date="2022-12-02" d="M357 91h12v12h-12z"/><path class="cg-day" fill="#eee" data-count="0" data-date="2022-12-03" d="M357 105h12v12h-12z"/></g><g><path class="cg-day" fill="#eee" data-count="0" data-date="2022-12-04" d="M371 21h12v12h-12z"/><path class="cg-day" fill="#eee" data-count="0" data-date="2022-12-05" d="M371 35h12v12h-12z"/><path class="cg-day" fill="#eee" data-count="0" data-date="2022-12-06" d="M371 49h12v12h-12z"/><path class="cg-day" fill="#eee" data-count="0" data-date="2022-12-07" d="M371 63h12v12h-12z"/><path class="cg-day" fill="#eee" data-count="0" data-date="2022-12-08" d="M371 77h12v12h-12z"/><path class="cg-day" fill="#eee" data-count="0" data-date="2022-12-09" d="M371 91h12v12h-12z"/><path class="cg-day" fill="#eee" data-count="0" data-date="2022-12-10" d="M371 105h12v12h-12z"/></g><g><path class="cg-day" fill="#eee" data-count="0" data-date="2022-12-11" d="M385 21h12v12h-12z"/><path class="cg-day" fill="#eee" data-count="0" data-date="2022-12-12" d="M385 35h12v12h-12z"/><path class="cg-day" fill="#eee" data-count="0" data-date="2022-12-13" d="M385 49h12v12h-12z"/><path class="cg-day" fill="#eee" data-count="0" data-date="2022-12-14" d="M385 63h12v12h-12z"/><path class="cg-day" fill="#eee" data-count="0" data-date="2022-12-15" d="M385 77h12v12h-12z"/><path class="cg-day" fill="#eee" data-count="0" data-date="2022-12-16" d="M385 91h12v12h-12z"/><path class="cg-day" fill="#eee" data-count="0" data-date="2022-12-17" d="M385 105h12v12h-12z"/></g><g><path class="cg-day" fill="#eee" data-count="0" data-date="2022-12-18" d="M399 21h12v12h-12z"/><path class="cg-day" fill="#eee" data-count="0" data-date="2022-12-19" d="M399 35h12v12h-12z"/><path class="cg-day" fill="#eee" data-count="0" data-date="2022-12-20" d="M399 49h12v12h-12z"/><path class="cg-day" fill="#eee" data-count="0" data-date="2022-12-21" d="M399 63h12v12h-12z"/><path class="cg-day" fill="#eee" data-count="0" data-date="2022-12-22" d="M399 77h12v12h-12z"/><path class="cg-day" fill="#eee" data-count="0" data-date="2022-12-23" d="M399 91h12v12h-12z"/><path class="cg-day" fill="#eee" data-count="0" data-date="2022-12-24" d="M399 105h12v12h-12z"/></g><g><path class="cg-day" fill="#eee" data-count="0" data-date="2022-12-25" d="M413 21h12v12h-12z"/><path class="cg-day" fill="#eee" data-count="0" data-date="2022-12-26" d="M413 35h12v12h-12z"/><path class="cg-day" fill="#eee" data-count="0" data-date="2022-12-27" d="M413 49h12v12h-12z"/><path class="cg-day" fill="#eee" data-count="0" data-date="2022-12-28" d="M413 63h12v12h-12z"/><path class="cg-day" fill="#eee" data-count="0" data-date="2022-12-29" d="M413 77h12v12h-12z"/><path class="cg-day" fill="#eee" data-count="0" data-date="2022-12-30" d="M413 91h12v12h-12z"/><path class="cg-day" fill="#eee" data-count="0" data-date="2022-12-31" d="M413 105h12v12h-12z"/></g><g><path class="cg-day" fill="#eee" data-count="0" data-date="2023-01-01" d="M427 21h12v12h-12z"/><path class="cg-day" fill="#eee" data-count="0" data-date="2023-01-02" d="M427 35h12v12h-12z"/><path class="cg-day" fill="#eee" data-count="0" data-date="2023-01-03" d="M427 49h12v12h-12z"/><path class="cg-day" fill="#eee" data-count="0" data-date="2023-01-04" d="M427 63h12v12h-12z"/><path class="cg-day" fill="#eee" data-count="0" data-date="2023-01-05" d="M427 77h12v12h-12z"/><path class="cg-day" fill="#eee" data-count="0" data-date="2023-01-06" d="M427 91h12v12h-12z"/><path class="cg-day" fill="#eee" data-count="0" data-date="2023-01-07" d="M427 105h12v12h-12z"/></g><g><path class="cg-day" fill="#eee" data-count="0" data-date="2023-01-08" d="M441 21h12v12h-12z"/><path class="cg-day" fill="#eee" data-count="0" data-date="2023-01-09" d="M441 35h12v12h-12z"/><path class="cg-day" fill="#eee" data-count="0" data-date="2023-01-10" d="M441 49h12v12h-12z"/><path class="cg-day" fill="#eee" data-count="0" data-date="2023-01-11" d="M441 63h12v12h-12z"/><path class="cg-day" fill="#eee" data-count="0" data-date="2023-01-12" d="M441 77h12v12h-12z"/><path class="cg-day" fill="#eee" data-count="0" data-date="2023-01-13" d="M441 91h12v12h-12z"/><path class="cg-day" fill="#eee" data-count="0" data-date="2023-01-14" d="M441 105h12v12h-12z"/></g><g><path class="cg-day" fill="#eee" data-count="0" data-date="2023-01-15" d="M455 21h12v12h-12z"/><path class="cg-day" fill="#eee" data-count="0" data-date="2023-01-16" d="M455 35h12v12h-12z"/><path class="cg-day" fill="#eee" data-count="0" data-date="2023-01-17" d="M455 49h12v12h-12z"/><path class="cg-day" fill="#eee" data-count="0" data-date="2023-01-18" d="M455 63h12v12h-12z"/><path class="cg-day" fill="#eee" data-count="0" data-date="2023-01-19" d="M455 77h12v12h-12z"/><path class="cg-day" fill="#eee" data-count="0" data-date="2023-01-20" d="M455 91h12v12h-12z"/><path class="cg-day" fill="#eee" data-count="0" data-date="2023-01-21" d="M455 105h12v12h-12z"/></g><g><path class="cg-day" fill="#eee" data-count="0" data-date="2023-01-22" d="M469 21h12v12h-12z"/><path class="cg-day" fill="#eee" data-count="0" data-date="2023-01-23" d="M469 35h12v12h-12z"/><path class="cg-day" fill="#eee" data-count="0" data-date="2023-01-24" d="M469 49h12v12h-12z"/><path class="cg-day" fill="#eee" data-count="0" data-date="2023-01-25" d="M469 63h12v12h-12z"/><path class="cg-day" fill="#eee" data-count="0" data-date="2023-01-26" d="M469 77h12v12h-12z"/><path class="cg-day" fill="#eee" data-count="0" data-date="2023-01-27" d="M469 91h12v12h-12z"/><path class="cg-day" fill="#eee" data-count="0" data-date="2023-01-28" d="M469 105h12v12h-12z"/></g><g><path class="cg-day" fill="#eee" data-count="0" data-date="2023-01-29" d="M483 21h12v12h-12z"/><path class="cg-day" fill="#eee" data-count="0" data-date="2023-01-30" d="M483 35h12v12h-12z"/><path class="cg-day" fill="#eee" data-count="0" data-date="2023-01-31" d="M483 49h12v12h-12z"/><path class="cg-day" fill="#eee" data-count="0" data-date="2023-02-01" d="M483 63h12v12h-12z"/><path class="cg-day" fill="#eee" data-count="0" data-date="2023-02-02" d="M483 77h12v12h-12z"/><path class="cg-day" fill="#eee" data-count="0" data-date="2023-02-03" d="M483 91h12v12h-12z"/><path class="cg-day" fill="#eee" data-count="0" data-date="2023-02-04" d="M483 105h12v12h-12z"/></g><g><path class="cg-day" fill="#eee" data-count="0" data-date="2023-02-05" d="M497 21h12v12h-12z"/><path class="cg-day" fill="#eee" data-count="0" data-date="2023-02-06" d="M497 35h12v12h-12z"/><path class="cg-day" fill="#eee" data-count="0" data-date="2023-02-07" d="M497 49h12v12h-12z"/><path class="cg-day" fill="#eee" data-count="0" data-date="2023-02-08" d="M497 63h12v12h-12z"/><path class="cg-day" fill="#eee" data-count="0" data-date="2023-02-09" d="M497 77h12v12h-12z"/><path class="cg-day" fill="#eee" data-count="0" data-date="2023-02-10" d="M497 91h12v12h-12z"/><path class="cg-day" fill="#eee" data-count="0" data-date="2023-02-11" d="M497 105h12v12h-12z"/></g><g><path class="cg-day" fill="#eee" data-count="0" data-date="2023-02-12" d="M511 21h12v12h-12z"/><path class="cg-day" fill="#eee" data-count="0" data-date="2023-02-13" d="M511 35h12v12h-12z"/><path class="cg-day" fill="#eee" data-count="0" data-date="2023-02-14" d="M511 49h12v12h-12z"/><path class="cg-day" fill="#eee" data-count="0" data-date="2023-02-15" d="M511 63h12v12h-12z"/><path class="cg-day" fill="#eee" data-count="0" data-date="2023-02-16" d="M511 77h12v12h-12z"/><path class="cg-day" fill="#eee" data-count="0" data-date="2023-02-17" d="M511 91h12v12h-12z"/><path class="cg-day" fill="#eee" data-count="0" data-date="2023-02-18" d="M511 105h12v12h-12z"/></g><g><path class="cg-day" fill="#eee" data-count="0" data-date="2023-02-19" d="M525 21h12v12h-12z"/><path class="cg-day" fill="#eee" data-count="0" data-date="2023-02-20" d="M525 35h12v12h-12z"/><path class="cg-day" fill="#eee" data-count="0" data-date="2023-02-21" d="M525 49h12v12h-12z"/><path class="cg-day" fill="#eee" data-count="0" data-date="2023-02-22" d="M525 63h12v12h-12z"/><path class="cg-day" fill="#eee" data-count="0" data-date="2023-02-23" d="M525 77h12v12h-12z"/><path class="cg-day" fill="#eee" data-count="0" data-date="2023-02-24" d="M525 91h12v12h-12z"/><path class="cg-day" fill="#eee" data-count="0" data-date="2023-02-25" d="M525 105h12v12h-12z"/></g><g><path class="cg-day" fill="#eee" data-count="0" data-date="2023-02-26" d="M539 21h12v12h-12z"/><path class="cg-day" fill="#eee" data-count="0" data-date="2023-02-27" d="M539 35h12v12h-12z"/><path class="cg-day" fill="#eee" data-count="0" data-date="2023-02-28" d="M539 49h12v12h-12z"/><path class="cg-day" fill="#eee" data-count="0" data-date="2023-03-01" d="M539 63h12v12h-12z"/><path class="cg-day" fill="#eee" data-count="0" data-date="2023-03-02" d="M539 77h12v12h-12z"/><path class="cg-day" fill="#eee" data-count="0" data-date="2023-03-03" d="M539 91h12v12h-12z"/><path class="cg-day" fill="#eee" data-count="0" data-date="2023-03-04" d="M539 105h12v12h-12z"/></g><g><path class="cg-day" fill="#eee" data-count="0" data-date="2023-03-05" d="M553 21h12v12h-12z"/><path class="cg-day" fill="#eee" data-count="0" data-date="2023-03-06" d="M553 35h12v12h-12z"/><path class="cg-day" fill="#eee" data-count="0" data-date="2023-03-07" d="M553 49h12v12h-12z"/><path class="cg-day" fill="#eee" data-count="0" data-date="2023-03-08" d="M553 63h12v12h-12z"/><path class="cg-day" fill="#eee" data-count="0" data-date="2023-03-09" d="M553 77h12v12h-12z"/><path class="cg-day" fill="#eee" data-count="0" data-date="2023-03-10" d="M553 91h12v12h-12z"/><path class="cg-day" fill="#eee" data-count="0" data-date="2023-03-11" d="M553 105h12v12h-12z"/></g><g><path class="cg-day" fill="#eee" data-count="0" data-date="2023-03-12" d="M567 21h12v12h-12z"/><path class="cg-day" fill="#eee" data-count="0" data-date="2023-03-13" d="M567 35h12v12h-12z"/><path class="cg-day" fill="#eee" data-count="0" data-date="2023-03-14" d="M567 49h12v12h-12z"/><path class="cg-day" fill="#eee" data-count="0" data-date="2023-03-15" d="M567 63h12v12h-12z"/><path class="cg-day" fill="#eee" data-count="0" data-date="2023-03-16" d="M567 77h12v12h-12z"/><path class="cg-day" fill="#eee" data-count="0" data-date="2023-03-17" d="M567 91h12v12h-12z"/><path class="cg-day" fill="#eee" data-count="0" data-date="2023-03-18" d="M567 105h12v12h-12z"/></g><g><path class="cg-day" fill="#eee" data-count="0" data-date="2023-03-19" d="M581 21h12v12h-12z"/><path class="cg-day" fill="#eee" data-count="0" data-date="2023-03-20" d="M581 35h12v12h-12z"/><path class="cg-day" fill="#eee" data-count="0" data-date="2023-03-21" d="M581 49h12v12h-12z"/><path class="cg-day" fill="#eee" data-count="0" data-date="2023-03-22" d="M581 63h12v12h-12z"/><path class="cg-day" fill="#eee" data-count="0" data-date="2023-03-23" d="M581 77h12v12h-12z"/><path class="cg-day" fill="#eee" data-count="0" data-date="2023-03-24" d="M581 91h12v12h-12z"/><path class="cg-day" fill="#eee" data-count="0" data-date="2023-03-25" d="M581 105h12v12h-12z"/></g><g><path class="cg-day" fill="#eee" data-count="0" data-date="2023-03-26" d="M595 21h12v12h-12z"/><path class="cg-day" fill="#eee" data-count="0" data-date="2023-03-27" d="M595 35h12v12h-12z"/><path class="cg-day" fill="#eee" data-count="0" data-date="2023-03-28" d="M595 49h12v12h-12z"/><path class="cg-day" fill="#eee" data-count="0" data-date="2023-03-29" d="M595 63h12v12h-12z"/><path class="cg-day" fill="#eee" data-count="0" data-date="2023-03-30" d="M595 77h12v12h-12z"/><path class="cg-day" fill="#eee" data-count="0" data-date="2023-03-31" d="M595 91h12v12h-12z"/><path class="cg-day" fill="#eee" data-count="0" data-date="2023-04-01" d="M595 105h12v12h-12z"/></g><g><path class="cg-day" fill="#eee" data-count="0" data-date="2023-04-02" d="M609 21h12v12h-12z"/><path class="cg-day" fill="#eee" data-count="0" data-date="2023-04-03" d="M609 35h12v12h-12z"/><path class="cg-day" fill="#eee" data-count="0" data-date="2023-04-04" d="M609 49h12v12h-12z"/><path class="cg-day" fill="#eee" data-count="0" data-date="2023-04-05" d="M609 63h12v12h-12z"/><path class="cg-day" fill="#eee" data-count="0" data-date="2023-04-06" d="M609 77h12v12h-12z"/><path class="cg-day" fill="#eee" data-count="0" data-date="2023-04-07" d="M609 91h12v12h-12z"/><path class="cg-day" fill="#eee" data-count="0" data-date="2023-04-08" d="M609 105h12v12h-12z"/></g><g><path class="cg-day" fill="#eee" data-count="0" data-date="2023-04-09" d="M623 21h12v12h-12z"/><path class="cg-day" fill="#eee" data-count="0" data-date="2023-04-10" d="M623 35h12v12h-12z"/><path class="cg-day" fill="#eee" data-count="0" data-date="2023-04-11" d="M623 49h12v12h-12z"/><path class="cg-day" fill="#eee" data-count="0" data-date="2023-04-12" d="M623 63h12v12h-12z"/><path class="cg-day" fill="#eee" data-count="0" data-date="2023-04-13" d="M623 77h12v12h-12z"/><path class="cg-day" fill="#eee" data-count="0" data-date="2023-04-14" d="M623 91h12v12h-12z"/><path class="cg-day" fill="#eee" data-count="0" data-date="2023-04-15" d="M623 105h12v12h-12z"/></g><g><path class="cg-day" fill="#eee" data-count="0" data-date="2023-04-16" d="M637 21h12v12h-12z"/><path class="cg-day" fill="#eee" data-count="0" data-date="2023-04-17" d="M637 35h12v12h-12z"/><path class="cg-day" fill="#eee" data-count="0" data-date="2023-04-18" d="M637 49h12v12h-12z"/><path class="cg-day" fill="#eee" data-count="0" data-date="2023-04-19" d="M637 63h12v12h-12z"/><path class="cg-day" fill="#eee" data-count="0" data-date="2023-04-20" d="M637 77h12v12h-12z"/><path class="cg-day" fill="#eee" data-count="0" data-date="2023-04-21" d="M637 91h12v12h-12z"/><path class="cg-day" fill="#eee" data-count="0" data-date="2023-04-22" d="M637 105h12v12h-12z"/></g><g><path class="cg-day" fill="#eee" data-count="0" data-date="2023-04-23" d="M651 21h12v12h-12z"/><path class="cg-day" fill="#eee" data-count="0" data-date="2023-04-24" d="M651 35h12v12h-12z"/><path class="cg-day" fill="#eee" data-count="0" data-date="2023-04-25" d="M651 49h12v12h-12z"/><path class="cg-day" fill="#eee" data-count="0" data-date="2023-04-26" d="M651 63h12v12h-12z"/><path class="cg-day" fill="#eee" data-count="0" data-date="2023-04-27" d="M651 77h12v12h-12z"/><path class="cg-day" fill="#eee" data-count="0" data-date="2023-04-28" d="M651 91h12v12h-12z"/><path class="cg-day" fill="#eee" data-count="0" data-date="2023-04-29" d="M651 105h12v12h-12z"/></g><g><path class="cg-day" fill="#eee" data-count="0" data-date="2023-04-30" d="M665 21h12v12h-12z"/><path class="cg-day" fill="#eee" data-count="0" data-date="2023-05-01" d="M665 35h12v12h-12z"/><path class="cg-day" fill="#eee" data-count="0" data-date="2023-05-02" d="M665 49h12v12h-12z"/><path class="cg-day" fill="#eee" data-count="0" data-date="2023-05-03" d="M665 63h12v12h-12z"/><path class="cg-day" fill="#eee" data-count="0" data-date="2023-05-04" d="M665 77h12v12h-12z"/><path class="cg-day" fill="#eee" data-count="0" data-date="2023-05-05" d="M665 91h12v12h-12z"/><path class="cg-day" fill="#eee" data-count="0" data-date="2023-05-06" d="M665 105h12v12h-12z"/></g><g><path class="cg-day" fill="#eee" data-count="0" data-date="2023-05-07" d="M679 21h12v12h-12z"/><path class="cg-day" fill="#eee" data-count="0" data-date="2023-05-08" d="M679 35h12v12h-12z"/><path class="cg-day" fill="#eee" data-count="0" data-date="2023-05-09" d="M679 49h12v12h-12z"/><path class="cg-day" fill="#eee" data-count="0" data-date="2023-05-10" d="M679 63h12v12h-12z"/><path class="cg-day" fill="#eee" data-count="0" data-date="2023-05-11" d="M679 77h12v12h-12z"/><path class="cg-day" fill="#eee" data-count="0" data-date="2023-05-12" d="M679 91h12v12h-12z"/><path class="cg-day" fill="#eee" data-count="0" data-date="2023-05-13" d="M679 105h12v12h-12z"/></g><g><path class="cg-day" fill="#eee" data-count="0" data-date="2023-05-14" d="M693 21h12v12h-12z"/><path class="cg-day" fill="#eee" data-count="0" data-date="2023-05-15" d="M693 35h12v12h-12z"/><path class="cg-day" fill="#eee" data-count="0" data-date="2023-05-16" d="M693 49h12v12h-12z"/><path class="cg-day" fill="#eee" data-count="0" data-date="2023-05-17" d="M693 63h12v12h-12z"/><path class="cg-day" fill="#eee" data-count="0" data-date="2023-05-18" d="M693 77h12v12h-12z"/><path class="cg-day" fill="#eee" data-count="0" data-date="2023-05-19" d="M693 91h12v12h-12z"/><path class="cg-day" fill="#eee" data-count="0" data-date="2023-05-20" d="M693 105h12v12h-12z"/></g><g><path class="cg-day" fill="#eee" data-count="0" data-date="2023-05-21" d="M707 21h12v12h-12z"/><path class="cg-day" fill="#eee" data-count="0" data-date="2023-05-22" d="M707 35h12v12h-12z"/><path class="cg-day" fill="#eee" data-count="0" data-date="2023-05-23" d="M707 49h12v12h-12z"/><path class="cg-day" fill="#eee" data-count="0" data-date="2023-05-24" d="M707 63h12v12h-12z"/><path class="cg-day" fill="#eee" data-count="0" data-date="2023-05-25" d="M707 77h12v12h-12z"/><path class="cg-day" fill="#eee" data-count="0" data-date="2023-05-26" d="M707 91h12v12h-12z"/><path class="cg-day" fill="#eee" data-count="0" data-date="2023-05-27" d="M707 105h12v12h-12z"/></g><g><path class="cg-day" fill="#eee" data-count="0" data-date="2023-05-28" d="M721 21h12v12h-12z"/><path class="cg-day" fill="#eee" data-count="0" data-date="2023-05-29" d="M721 35h12v12h-12z"/><path class="cg-day" fill="#eee" data-count="0" data-date="2023-05-30" d="M721 49h12v12h-12z"/><path class="cg-day" fill="#eee" data-count="0" data-date="2023-05-31" d="M721 63h12v12h-12z"/><path class="cg-day" fill="#eee" data-count="0" data-date="2023-06-01" d="M721 77h12v12h-12z"/><path class="cg-day" fill="#eee" data-count="0" data-date="2023-06-02" d="M721 91h12v12h-12z"/><path class="cg-day" fill="#eee" data-count="0" data-date="2023-06-03" d="M721 105h12v12h-12z"/></g><g><path class="cg-day" fill="#eee" data-count="0" data-date="2023-06-04" d="M735 21h12v12h-12z"/><path class="cg-day" fill="#eee" data-count="0" data-date="2023-06-05" d="M735 35h12v12h-12z"/><path class="cg-day" fill="#eee" data-count="0" data-date="2023-06-06" d="M735 49h12v12h-12z"/><path class="cg-day" fill="#eee" data-count="0" data-date="2023-06-07" d="M735 63h12v12h-12z"/><path class="cg-day" fill="#eee" data-count="0" data-date="2023-06-08" d="M735 77h12v12h-12z"/><path class="cg-day" fill="#eee" data-count="0" data-date="2023-06-09" d="M735 91h12v12h-12z"/><path class="cg-day" fill="#eee" data-count="0" data-date="2023-06-10" d="M735 105h12v12h-12z"/></g><g><path class="cg-day" fill="#eee" data-count="0" data-date="2023-06-11" d="M749 21h12v12h-12z"/><path class="cg-day" fill="#eee" data-count="0" data-date="2023-06-12" d="M749 35h12v12h-12z"/><path class="cg-day" fill="#eee" data-count="0" data-date="2023-06-13" d="M749 49h12v12h-12z"/><path class="cg-day" fill="#eee" data-count="0" data-date="2023-06-14" d="M749 63h12v12h-12z"/><path class="cg-day" fill="#eee" data-count="0" data-date="2023-06-15" d="M749 77h12v12h-12z"/></g><g fill="#959494" font-size="12" font-family="-apple-system,BlinkMacSystemFont,&quot;Segoe UI&quot;,Roboto,&quot;Helvetica Neue&quot;,Arial,sans-serif" dominant-baseline="central"><text x="35" y="10">Jun</text><text x="77" y="10">Jul</text><text x="133" y="10">Aug</text><text x="189" y="10">Sep</text><text x="245" y="10">Oct</text><text x="315" y="10">Nov</text><text x="371" y="10">Dec</text><text x="427" y="10">Jan</text><text x="497" y="10">Feb</text><text x="553" y="10">Mar</text><text x="609" y="10">Apr</text><text x="679" y="10">May</text><text x="735" y="10">Jun</text></g><g fill="#959494" font-size="12" font-family="-apple-system,BlinkMacSystemFont,&quot;Segoe UI&quot;,Roboto,&quot;Helvetica Neue&quot;,Arial,sans-serif" dominant-baseline="central"><text x="10" y="41">M</text><text x="10" y="69">W</text><text x="10" y="97">F</text></g></svg>